<svg xmlns="http://www.w3.org/2000/svg" viewBox="0 0 406.27 615.02"><defs><style>.cls-1{fill:#f77116;}.cls-2{fill:#f78131;}</style></defs><title>Recurso 15</title><g id="Capa_2" data-name="Capa 2"><g id="Capa_1-2" data-name="Capa 1"><path class="cls-1" d="M355.41,560.1h5l20.44,38.38,20.44-38.38h5v53.59h-5v-43l-20.44,38.37L360.4,570.71v43h-5Z"/><path class="cls-2" d="M204.19,0A119.25,119.25,0,0,1,324.53,118.55c.7,66.29-52,119.71-118.4,120.08C138.62,239,86.94,188,86.43,120.48,85.93,53.34,137.63.44,204.19,0Z"/><path class="cls-2" d="M206.61,294.41V514.6a14.47,14.47,0,0,1-11.93-6.87c-58.2-93.58-116.85-184-149.38-286.16-4.21-13.15,10.48-24.4,22-16.72L198.16,292A14.23,14.23,0,0,0,206.61,294.41Z"/><path class="cls-1" d="M365.61,226.59c-33.43,99.67-85.8,190.63-146.4,281.59a14.35,14.35,0,0,1-12.6,6.42V294.41a14.53,14.53,0,0,0,7.36-2.22l130-82.19C355.36,202.77,370,213.8,365.61,226.59Z"/><path class="cls-1" d="M17.2,569.52H0V558.83H46.3v10.69H29.1v44.54H17.2Z"/><path class="cls-1" d="M54.17,590.18V558.83H66V589.7c0,8.52,5.47,14.55,13.18,14.55s13.11-6,13.11-14.55V558.83h11.89v31.35c0,14.55-10.37,24.84-25,24.84S54.17,604.73,54.17,590.18Z"/><path class="cls-1" d="M148.14,614.06l-12.62-17.93h-8.77v17.93H114.94V558.83h24.84c12,0,20.82,7.72,20.82,18.65,0,8.2-5,14.63-12.54,17.28l13.58,19.3Zm-21.39-28.78h11.74c5.87,0,9.89-3.06,9.89-7.8s-4-7.8-9.89-7.8H126.75Z"/><path class="cls-1" d="M169.59,558.83h11.9v55.23h-11.9Z"/><path class="cls-1" d="M240.48,586.4c0-15.51,13-28.53,28.3-28.53a27.86,27.86,0,0,1,19.85,8.44l-4.26,4.34a21.54,21.54,0,0,0-15.59-7c-11.9,0-21.95,10.45-21.95,22.74s10,22.83,21.95,22.83a21.54,21.54,0,0,0,15.59-7l4.26,4.34A28.19,28.19,0,0,1,268.78,615C253.51,615,240.48,601.92,240.48,586.4Z"/><path class="cls-1" d="M336.7,601.52H305.91l-5.55,12.54h-6.83l24.36-55.23h6.83l24.36,55.23h-6.83Zm-2.57-5.95-12.79-29-12.86,29Z"/><path class="cls-1" d="M191.26,603.8l26-31.47H192V558.87h44.32v11.18l-26,31.47h26.21V615H191.26Z"/></g></g></svg>